<svg xmlns="http://www.w3.org/2000/svg" xmlns:v="https://svgstorm.com"
viewBox = "0 0 1563 1563"
width="1563"
height="1563">
<g fill="None" fill-opacity="0.0" stroke="#0B0F0E" stroke-opacity="1.00" stroke-width="0.3"><path d="
M 0.00 1563.00 
L 1563.00 1563.00
L 1563.00 0.00
L 0.00 0.00
L 0.00 1563.00
M 424.00 623.00 
C 424.00 653.67 424.00 684.33 424.00 715.00
C 400.67 715.00 377.33 715.00 354.00 715.00
C 354.00 775.33 354.00 835.67 354.00 896.00
C 302.67 896.00 251.33 896.00 200.00 896.00
C 200.00 835.66 200.00 775.34 200.00 715.00
C 176.67 715.00 153.33 715.00 130.00 715.00
C 130.00 684.33 130.00 653.67 130.00 623.00
C 228.00 623.00 326.00 623.00 424.00 623.00
M 1389.00 634.00 
C 1405.08 636.30 1418.18 648.85 1414.00 667.00 C 1409.82 685.15 1392.73 687.37 1376.00 687.00 C 1359.27 686.63 1347.20 670.96 1351.00 654.00 C 1354.80 637.04 1372.98 631.71 1389.00 634.00
M 1116.00 639.00 
C 1116.01 718.33 1116.00 797.67 1116.00 877.00
C 1096.00 877.00 1076.00 877.00 1056.00 877.00
C 1056.00 797.67 1056.00 718.33 1056.00 639.00
C 1076.00 639.00 1096.00 639.00 1116.00 639.00
M 823.00 877.00 
C 803.00 877.00 783.00 877.00 763.00 877.00
C 762.87 866.21 763.17 854.72 763.00 844.00 C 762.83 833.28 763.33 821.46 763.00 811.00 C 762.67 800.54 763.68 786.76 763.00 777.00 C 762.32 767.24 761.11 759.08 754.75 752.25 C 748.40 745.42 736.54 746.51 728.77 750.77 C 721.01 755.03 717.93 763.09 716.07 772.07 C 714.22 781.06 713.75 792.59 714.00 803.00 C 714.25 813.41 713.89 824.97 714.00 836.00 C 714.11 847.03 713.96 858.49 714.00 870.00 C 714.04 881.51 697.76 876.19 688.00 877.00 C 678.24 877.81 664.15 876.39 654.00 877.00
C 654.00 819.33 654.00 761.67 654.00 704.00
C 666.53 703.31 679.51 704.92 692.00 704.00 C 704.49 703.08 702.24 718.69 707.00 727.00
C 726.06 704.93 754.62 694.32 784.07 703.93 C 813.53 713.53 824.59 739.41 823.00 771.00 C 821.41 802.59 824.19 844.48 823.00 877.00
M 1010.00 825.00 
C 1013.20 825.15 1012.53 839.45 1012.00 845.00 C 1011.47 850.55 1014.49 864.13 1010.00 868.00
C 999.78 876.82 983.10 876.09 969.99 878.99 C 956.89 881.89 935.51 879.78 922.33 877.67 C 909.15 875.56 896.71 869.96 886.25 861.75 C 875.78 853.54 869.03 846.01 863.23 833.77 C 857.43 821.53 855.78 803.22 856.00 789.00 C 856.22 774.78 858.14 758.18 863.92 745.92 C 869.71 733.67 875.14 725.43 886.08 717.08 C 897.03 708.73 909.27 704.42 923.02 702.02 C 936.78 699.62 956.53 700.78 969.68 704.32 C 982.83 707.87 993.36 712.78 1002.75 723.25 C 1012.14 733.71 1017.95 741.95 1020.78 756.22 C 1023.60 770.50 1022.58 790.74 1023.00 806.00
C 987.33 806.01 951.67 806.00 916.00 806.00
C 921.60 850.97 981.43 838.50 1010.00 825.00
M 1311.00 761.00 
C 1311.66 767.78 1312.44 775.46 1312.00 783.00 C 1311.56 790.54 1312.43 799.50 1312.00 807.00 C 1311.57 814.51 1312.71 822.78 1312.00 830.00 C 1311.29 837.22 1313.40 847.42 1312.00 854.00 C 1310.60 860.58 1315.49 872.69 1311.00 877.00
C 1304.45 877.58 1295.38 877.29 1289.00 877.00 C 1282.62 876.71 1273.30 879.30 1269.00 875.00
C 1263.85 869.85 1262.95 859.86 1259.00 854.00
C 1239.74 877.21 1200.39 889.11 1173.31 873.69 C 1146.22 858.28 1137.87 816.02 1158.25 791.25 C 1178.64 766.49 1221.59 766.54 1252.00 767.00
C 1255.44 749.22 1238.25 740.64 1223.33 743.33 C 1208.41 746.02 1196.20 750.65 1182.00 755.00
C 1177.47 743.54 1173.55 735.02 1168.68 723.32 C 1163.81 711.63 1181.12 709.64 1192.22 706.22 C 1203.32 702.81 1220.41 701.58 1233.00 701.00 C 1245.59 700.42 1262.94 701.39 1274.07 705.93 C 1285.21 710.46 1293.19 715.48 1300.75 725.25 C 1308.31 735.02 1311.11 748.63 1311.00 761.00
M 504.00 704.00 
C 503.17 726.17 505.11 758.88 504.00 780.00 C 502.89 801.12 501.82 834.22 528.00 832.00 C 554.18 829.78 551.96 802.32 553.00 781.00 C 554.04 759.68 552.22 726.41 553.00 704.00
C 573.00 704.00 593.00 704.00 613.00 704.00
C 613.00 761.67 613.00 819.33 613.00 877.00
C 600.15 879.42 591.25 873.77 578.00 877.00 C 564.75 880.23 565.77 865.52 561.07 857.93 C 556.38 850.33 550.31 865.93 543.25 869.25 C 536.20 872.58 526.20 878.09 516.98 878.98 C 507.75 879.86 493.81 880.46 484.93 877.07 C 476.04 873.68 469.01 871.93 462.25 864.75 C 455.49 857.57 451.00 852.61 448.08 842.92 C 445.16 833.24 444.39 821.93 444.00 811.00 C 443.61 800.07 444.18 787.42 444.00 776.00 C 443.82 764.58 444.09 751.59 444.00 740.00 C 443.91 728.41 444.07 716.61 444.00 705.00
C 464.00 704.00 484.00 704.00 504.00 704.00
M 1412.00 704.00 
C 1412.00 761.67 1412.00 819.33 1412.00 877.00
C 1392.00 877.00 1372.00 877.00 1352.00 877.00
C 1352.00 819.33 1352.00 761.67 1352.00 704.00
C 1372.00 704.00 1392.00 704.00 1412.00 704.00
M 758.00 928.00 
C 754.71 940.47 745.63 928.15 738.31 933.31 C 730.98 938.47 730.34 948.44 733.32 956.68 C 736.31 964.91 748.40 964.26 754.00 959.00
C 755.02 961.35 756.58 963.85 759.00 965.00
C 745.04 982.61 720.35 969.02 720.00 949.00 C 719.65 928.98 741.08 912.99 758.00 928.00
M 790.00 922.00 
C 818.63 926.65 811.33 978.54 782.00 973.00 C 752.67 967.46 760.22 917.16 790.00 922.00
M 827.00 950.00 
C 827.35 953.57 830.74 969.38 827.00 972.00
C 826.32 972.47 818.68 972.47 818.00 972.00
C 814.93 969.85 817.44 959.93 817.00 956.00 C 816.56 952.07 816.57 942.94 817.00 939.00 C 817.43 935.06 814.95 925.14 818.00 923.00
C 820.68 921.12 826.99 924.41 830.00 923.00
C 832.79 933.16 837.35 942.76 840.00 953.00
C 844.33 943.64 847.23 932.91 851.00 923.00
C 855.00 923.00 859.00 923.00 863.00 923.00
C 863.00 939.33 863.00 955.67 863.00 972.00
C 859.67 972.00 856.33 972.00 853.00 972.00
C 852.11 961.35 854.36 949.53 853.00 940.00
C 851.83 949.29 848.09 951.36 846.03 961.03 C 843.96 970.69 834.95 968.01 834.02 958.98 C 833.10 949.94 826.97 946.95 827.00 938.00
C 824.86 941.18 828.23 945.90 827.00 950.00
M 708.00 959.00 
C 715.78 961.21 711.55 976.05 703.33 972.67 C 695.11 969.29 699.44 956.57 708.00 959.00 Z"/>
</g>
<g fill="None" fill-opacity="0.0" stroke="#A6AAAA" stroke-opacity="1.00" stroke-width="0.3"><path d="
M 424.00 623.00 
C 326.00 623.00 228.00 623.00 130.00 623.00
C 130.00 653.67 130.00 684.33 130.00 715.00
C 153.33 715.00 176.67 715.00 200.00 715.00
C 200.00 775.34 200.00 835.66 200.00 896.00
C 251.33 896.00 302.67 896.00 354.00 896.00
C 354.00 835.67 354.00 775.33 354.00 715.00
C 377.33 715.00 400.67 715.00 424.00 715.00
C 424.00 684.33 424.00 653.67 424.00 623.00 Z"/>
</g>
<g fill="None" fill-opacity="0.0" stroke="#DADEDE" stroke-opacity="1.00" stroke-width="0.3"><path d="
M 1389.00 634.00 
C 1372.98 631.71 1354.80 637.04 1351.00 654.00 C 1347.20 670.96 1359.27 686.63 1376.00 687.00 C 1392.73 687.37 1409.82 685.15 1414.00 667.00 C 1418.18 648.85 1405.08 636.30 1389.00 634.00 Z"/>
</g>
<g fill="None" fill-opacity="0.0" stroke="#DBDFDF" stroke-opacity="1.00" stroke-width="0.3"><path d="
M 1116.00 639.00 
C 1096.00 639.00 1076.00 639.00 1056.00 639.00
C 1056.00 718.33 1056.00 797.67 1056.00 877.00
C 1076.00 877.00 1096.00 877.00 1116.00 877.00
C 1116.00 797.67 1116.01 718.33 1116.00 639.00 Z"/>
</g>
<g fill="None" fill-opacity="0.0" stroke="#DBDFDF" stroke-opacity="1.00" stroke-width="0.3"><path d="
M 823.00 877.00 
C 824.19 844.48 821.41 802.59 823.00 771.00 C 824.59 739.41 813.53 713.53 784.07 703.93 C 754.62 694.32 726.06 704.93 707.00 727.00
C 702.24 718.69 704.49 703.08 692.00 704.00 C 679.51 704.92 666.53 703.31 654.00 704.00
C 654.00 761.67 654.00 819.33 654.00 877.00
C 664.15 876.39 678.24 877.81 688.00 877.00 C 697.76 876.19 714.04 881.51 714.00 870.00 C 713.96 858.49 714.11 847.03 714.00 836.00 C 713.89 824.97 714.25 813.41 714.00 803.00 C 713.75 792.59 714.22 781.06 716.07 772.07 C 717.93 763.09 721.01 755.03 728.77 750.77 C 736.54 746.51 748.40 745.42 754.75 752.25 C 761.11 759.08 762.32 767.24 763.00 777.00 C 763.68 786.76 762.67 800.54 763.00 811.00 C 763.33 821.46 762.83 833.28 763.00 844.00 C 763.17 854.72 762.87 866.21 763.00 877.00
C 783.00 877.00 803.00 877.00 823.00 877.00 Z"/>
</g>
<g fill="None" fill-opacity="0.0" stroke="#DBDFDF" stroke-opacity="1.00" stroke-width="0.3"><path d="
M 1010.00 868.00 
C 1012.88 864.53 1011.25 851.27 1011.00 847.00 C 1010.75 842.73 1013.33 827.04 1010.00 825.00
C 981.43 838.50 921.60 850.97 916.00 806.00
C 951.67 806.00 987.33 806.01 1023.00 806.00
C 1022.58 790.74 1023.60 770.50 1020.78 756.22 C 1017.95 741.95 1012.14 733.71 1002.75 723.25 C 993.36 712.78 982.83 707.87 969.68 704.32 C 956.53 700.78 936.78 699.62 923.02 702.02 C 909.27 704.42 897.03 708.73 886.08 717.08 C 875.14 725.43 869.71 733.67 863.92 745.92 C 858.14 758.18 856.22 774.78 856.00 789.00 C 855.78 803.22 857.43 821.53 863.23 833.77 C 869.03 846.01 875.78 853.54 886.25 861.75 C 896.71 869.96 909.15 875.56 922.33 877.67 C 935.51 879.78 956.89 881.89 969.99 878.99 C 983.10 876.09 999.78 876.82 1010.00 868.00
M 968.00 769.00 
C 951.00 769.00 934.00 769.00 917.00 769.00
C 917.48 754.80 927.05 741.71 942.02 741.02 C 957.00 740.34 969.85 753.79 968.00 769.00 Z"/>
</g>
<g fill="None" fill-opacity="0.0" stroke="#DBDFDF" stroke-opacity="1.00" stroke-width="0.3"><path d="
M 1269.00 875.00 
C 1274.18 878.70 1282.64 874.98 1289.00 876.00 C 1295.36 877.02 1304.38 875.40 1311.00 876.00
C 1311.02 837.67 1311.00 799.33 1311.00 761.00
C 1311.11 748.63 1308.31 735.02 1300.75 725.25 C 1293.19 715.48 1285.21 710.46 1274.07 705.93 C 1262.94 701.39 1245.59 700.42 1233.00 701.00 C 1220.41 701.58 1203.32 702.81 1192.22 706.22 C 1181.12 709.64 1163.81 711.63 1168.68 723.32 C 1173.55 735.02 1177.47 743.54 1182.00 755.00
C 1196.20 750.65 1208.41 746.02 1223.33 743.33 C 1238.25 740.64 1255.44 749.22 1252.00 767.00
C 1221.59 766.54 1178.64 766.49 1158.25 791.25 C 1137.87 816.02 1146.22 858.28 1173.31 873.69 C 1200.39 889.11 1239.74 877.21 1259.00 854.00
C 1262.95 859.86 1263.85 869.85 1269.00 875.00
M 1252.00 800.00 
C 1253.74 816.28 1250.84 829.79 1234.98 835.98 C 1219.11 842.16 1202.55 828.70 1210.31 812.31 C 1218.06 795.91 1237.24 801.59 1252.00 800.00 Z"/>
</g>
<g fill="None" fill-opacity="0.0" stroke="#DBDFDF" stroke-opacity="1.00" stroke-width="0.3"><path d="
M 504.00 704.00 
C 484.00 704.00 464.00 704.00 444.00 704.00
C 444.07 716.61 443.91 728.41 444.00 740.00 C 444.09 751.59 443.82 764.58 444.00 776.00 C 444.18 787.42 443.61 800.07 444.00 811.00 C 444.39 821.93 445.16 833.24 448.08 842.92 C 451.00 852.61 455.49 857.57 462.25 864.75 C 469.01 871.93 476.04 873.68 484.93 877.07 C 493.81 880.46 507.75 879.86 516.98 878.98 C 526.20 878.09 536.20 872.58 543.25 869.25 C 550.31 865.93 556.38 850.33 561.07 857.93 C 565.77 865.52 564.75 880.23 578.00 877.00 C 591.25 873.77 600.15 879.42 613.00 877.00
C 613.00 819.33 613.00 761.67 613.00 704.00
C 593.00 704.00 573.00 704.00 553.00 704.00
C 552.22 726.41 554.04 759.68 553.00 781.00 C 551.96 802.32 554.18 829.78 528.00 832.00 C 501.82 834.22 502.89 801.12 504.00 780.00 C 505.11 758.88 503.17 726.17 504.00 704.00 Z"/>
</g>
<g fill="None" fill-opacity="0.0" stroke="#DBDFDF" stroke-opacity="1.00" stroke-width="0.3"><path d="
M 1412.00 704.00 
C 1392.00 704.00 1372.00 704.00 1352.00 704.00
C 1352.00 761.67 1352.00 819.33 1352.00 877.00
C 1372.00 877.00 1392.00 877.00 1412.00 877.00
C 1412.00 819.33 1412.00 761.67 1412.00 704.00 Z"/>
</g>
<g fill="None" fill-opacity="0.0" stroke="#101514" stroke-opacity="1.00" stroke-width="0.3"><path d="
M 968.00 769.00 
C 969.85 753.79 957.00 740.34 942.02 741.02 C 927.05 741.71 917.48 754.80 917.00 769.00
C 934.00 769.00 951.00 769.00 968.00 769.00 Z"/>
</g>
<g fill="None" fill-opacity="0.0" stroke="#666B6A" stroke-opacity="1.00" stroke-width="0.3"><path d="
M 1311.00 876.00 
C 1311.00 876.50 1311.00 877.00 1311.00 877.00
C 1315.49 872.69 1310.60 860.58 1312.00 854.00 C 1313.40 847.42 1311.29 837.22 1312.00 830.00 C 1312.71 822.78 1311.57 814.51 1312.00 807.00 C 1312.43 799.50 1311.56 790.54 1312.00 783.00 C 1312.44 775.46 1311.66 767.78 1311.00 761.00
C 1311.00 799.33 1311.02 837.67 1311.00 876.00 Z"/>
</g>
<g fill="None" fill-opacity="0.0" stroke="#0D1211" stroke-opacity="1.00" stroke-width="0.3"><path d="
M 1252.00 800.00 
C 1237.24 801.59 1218.06 795.91 1210.31 812.31 C 1202.55 828.70 1219.11 842.16 1234.98 835.98 C 1250.84 829.79 1253.74 816.28 1252.00 800.00 Z"/>
</g>
<g fill="None" fill-opacity="0.0" stroke="#5B605F" stroke-opacity="1.00" stroke-width="0.3"><path d="
M 1010.00 825.00 
C 1013.33 827.04 1010.75 842.73 1011.00 847.00 C 1011.25 851.27 1012.88 864.53 1010.00 868.00
C 1014.49 864.13 1011.47 850.55 1012.00 845.00 C 1012.53 839.45 1013.20 825.15 1010.00 825.00 Z"/>
</g>
<g fill="None" fill-opacity="0.0" stroke="#A7ACAB" stroke-opacity="1.00" stroke-width="0.3"><path d="
M 1311.00 877.00 
C 1311.00 877.00 1311.00 876.50 1311.00 876.00
C 1304.38 875.40 1295.36 877.02 1289.00 876.00 C 1282.64 874.98 1274.18 878.70 1269.00 875.00
C 1273.30 879.30 1282.62 876.71 1289.00 877.00 C 1295.38 877.29 1304.45 877.58 1311.00 877.00 Z"/>
</g>
<g fill="None" fill-opacity="0.0" stroke="#D5D9D9" stroke-opacity="1.00" stroke-width="0.3"><path d="
M 758.00 928.00 
C 741.08 912.99 719.65 928.98 720.00 949.00 C 720.35 969.02 745.04 982.61 759.00 965.00
C 756.58 963.85 755.02 961.35 754.00 959.00
C 748.40 964.26 736.31 964.91 733.32 956.68 C 730.34 948.44 730.98 938.47 738.31 933.31 C 745.63 928.15 754.71 940.47 758.00 928.00 Z"/>
</g>
<g fill="None" fill-opacity="0.0" stroke="#D7DBDB" stroke-opacity="1.00" stroke-width="0.3"><path d="
M 790.00 922.00 
C 760.22 917.16 752.67 967.46 782.00 973.00 C 811.33 978.54 818.63 926.65 790.00 922.00
M 790.00 932.00 
C 803.43 936.96 796.73 967.77 782.33 962.67 C 767.93 957.57 774.68 926.34 790.00 932.00 Z"/>
</g>
<g fill="None" fill-opacity="0.0" stroke="#7A7E7E" stroke-opacity="1.00" stroke-width="0.3"><path d="
M 818.00 972.00 
C 818.00 955.67 818.00 939.33 818.00 923.00
C 814.95 925.14 817.43 935.06 817.00 939.00 C 816.57 942.94 816.56 952.07 817.00 956.00 C 817.44 959.93 814.93 969.85 818.00 972.00 Z"/>
</g>
<g fill="None" fill-opacity="0.0" stroke="#D9DDDD" stroke-opacity="1.00" stroke-width="0.3"><path d="
M 818.00 972.00 
C 818.68 972.47 826.32 972.47 827.00 972.00
C 827.00 964.67 827.00 957.33 827.00 950.00
C 828.23 945.90 824.86 941.18 827.00 938.00
C 826.97 946.95 833.10 949.94 834.02 958.98 C 834.95 968.01 843.96 970.69 846.03 961.03 C 848.09 951.36 851.83 949.29 853.00 940.00
C 854.36 949.53 852.11 961.35 853.00 972.00
C 856.33 972.00 859.67 972.00 863.00 972.00
C 863.00 955.67 863.00 939.33 863.00 923.00
C 859.00 923.00 855.00 923.00 851.00 923.00
C 847.23 932.91 844.33 943.64 840.00 953.00
C 837.35 942.76 832.79 933.16 830.00 923.00
C 826.99 924.41 820.68 921.12 818.00 923.00
C 818.00 939.33 818.00 955.67 818.00 972.00 Z"/>
</g>
<g fill="None" fill-opacity="0.0" stroke="#0F1413" stroke-opacity="1.00" stroke-width="0.3"><path d="
M 790.00 932.00 
C 774.68 926.34 767.93 957.57 782.33 962.67 C 796.73 967.77 803.43 936.96 790.00 932.00 Z"/>
</g>
<g fill="None" fill-opacity="0.0" stroke="#6F7373" stroke-opacity="1.00" stroke-width="0.3"><path d="
M 827.00 972.00 
C 830.74 969.38 827.35 953.57 827.00 950.00
C 827.00 957.33 827.00 964.67 827.00 972.00 Z"/>
</g>
<g fill="None" fill-opacity="0.0" stroke="#D4D8D8" stroke-opacity="1.00" stroke-width="0.3"><path d="
M 708.00 959.00 
C 699.44 956.57 695.11 969.29 703.33 972.67 C 711.55 976.05 715.78 961.21 708.00 959.00 Z"/>
</g>
<g fill="#0B0F0E" fill-opacity="1.00" stroke="None">
<path d="
M 0.00 1563.00 
L 1563.00 1563.00
L 1563.00 0.00
L 0.00 0.00
L 0.00 1563.00
M 424.00 623.00 
C 424.00 653.67 424.00 684.33 424.00 715.00
C 400.67 715.00 377.33 715.00 354.00 715.00
C 354.00 775.33 354.00 835.67 354.00 896.00
C 302.67 896.00 251.33 896.00 200.00 896.00
C 200.00 835.66 200.00 775.34 200.00 715.00
C 176.67 715.00 153.33 715.00 130.00 715.00
C 130.00 684.33 130.00 653.67 130.00 623.00
C 228.00 623.00 326.00 623.00 424.00 623.00
M 1389.00 634.00 
C 1405.08 636.30 1418.18 648.85 1414.00 667.00 C 1409.82 685.15 1392.73 687.37 1376.00 687.00 C 1359.27 686.63 1347.20 670.96 1351.00 654.00 C 1354.80 637.04 1372.98 631.71 1389.00 634.00
M 1116.00 639.00 
C 1116.01 718.33 1116.00 797.67 1116.00 877.00
C 1096.00 877.00 1076.00 877.00 1056.00 877.00
C 1056.00 797.67 1056.00 718.33 1056.00 639.00
C 1076.00 639.00 1096.00 639.00 1116.00 639.00
M 823.00 877.00 
C 803.00 877.00 783.00 877.00 763.00 877.00
C 762.87 866.21 763.17 854.72 763.00 844.00 C 762.83 833.28 763.33 821.46 763.00 811.00 C 762.67 800.54 763.68 786.76 763.00 777.00 C 762.32 767.24 761.11 759.08 754.75 752.25 C 748.40 745.42 736.54 746.51 728.77 750.77 C 721.01 755.03 717.93 763.09 716.07 772.07 C 714.22 781.06 713.75 792.59 714.00 803.00 C 714.25 813.41 713.89 824.97 714.00 836.00 C 714.11 847.03 713.96 858.49 714.00 870.00 C 714.04 881.51 697.76 876.19 688.00 877.00 C 678.24 877.81 664.15 876.39 654.00 877.00
C 654.00 819.33 654.00 761.67 654.00 704.00
C 666.53 703.31 679.51 704.92 692.00 704.00 C 704.49 703.08 702.24 718.69 707.00 727.00
C 726.06 704.93 754.62 694.32 784.07 703.93 C 813.53 713.53 824.59 739.41 823.00 771.00 C 821.41 802.59 824.19 844.48 823.00 877.00
M 1010.00 825.00 
C 1013.20 825.15 1012.53 839.45 1012.00 845.00 C 1011.47 850.55 1014.49 864.13 1010.00 868.00
C 999.78 876.82 983.10 876.09 969.99 878.99 C 956.89 881.89 935.51 879.78 922.33 877.67 C 909.15 875.56 896.71 869.96 886.25 861.75 C 875.78 853.54 869.03 846.01 863.23 833.77 C 857.43 821.53 855.78 803.22 856.00 789.00 C 856.22 774.78 858.14 758.18 863.92 745.92 C 869.71 733.67 875.14 725.43 886.08 717.08 C 897.03 708.73 909.27 704.42 923.02 702.02 C 936.78 699.62 956.53 700.78 969.68 704.32 C 982.83 707.87 993.36 712.78 1002.75 723.25 C 1012.14 733.71 1017.95 741.95 1020.78 756.22 C 1023.60 770.50 1022.58 790.74 1023.00 806.00
C 987.33 806.01 951.67 806.00 916.00 806.00
C 921.60 850.97 981.43 838.50 1010.00 825.00
M 1311.00 761.00 
C 1311.66 767.78 1312.44 775.46 1312.00 783.00 C 1311.56 790.54 1312.43 799.50 1312.00 807.00 C 1311.57 814.51 1312.71 822.78 1312.00 830.00 C 1311.29 837.22 1313.40 847.42 1312.00 854.00 C 1310.60 860.58 1315.49 872.69 1311.00 877.00
C 1304.45 877.58 1295.38 877.29 1289.00 877.00 C 1282.62 876.71 1273.30 879.30 1269.00 875.00
C 1263.85 869.85 1262.95 859.86 1259.00 854.00
C 1239.74 877.21 1200.39 889.11 1173.31 873.69 C 1146.22 858.28 1137.87 816.02 1158.25 791.25 C 1178.64 766.49 1221.59 766.54 1252.00 767.00
C 1255.44 749.22 1238.25 740.64 1223.33 743.33 C 1208.41 746.02 1196.20 750.65 1182.00 755.00
C 1177.47 743.54 1173.55 735.02 1168.68 723.32 C 1163.81 711.63 1181.12 709.64 1192.22 706.22 C 1203.32 702.81 1220.41 701.58 1233.00 701.00 C 1245.59 700.42 1262.94 701.39 1274.07 705.93 C 1285.21 710.46 1293.19 715.48 1300.75 725.25 C 1308.31 735.02 1311.11 748.63 1311.00 761.00
M 504.00 704.00 
C 503.17 726.17 505.11 758.88 504.00 780.00 C 502.89 801.12 501.82 834.22 528.00 832.00 C 554.18 829.78 551.96 802.32 553.00 781.00 C 554.04 759.68 552.22 726.41 553.00 704.00
C 573.00 704.00 593.00 704.00 613.00 704.00
C 613.00 761.67 613.00 819.33 613.00 877.00
C 600.15 879.42 591.25 873.77 578.00 877.00 C 564.75 880.23 565.77 865.52 561.07 857.93 C 556.38 850.33 550.31 865.93 543.25 869.25 C 536.20 872.58 526.20 878.09 516.98 878.98 C 507.75 879.86 493.81 880.46 484.93 877.07 C 476.04 873.68 469.01 871.93 462.25 864.75 C 455.49 857.57 451.00 852.61 448.08 842.92 C 445.16 833.24 444.39 821.93 444.00 811.00 C 443.61 800.07 444.18 787.42 444.00 776.00 C 443.82 764.58 444.09 751.59 444.00 740.00 C 443.91 728.41 444.07 716.61 444.00 705.00
C 464.00 704.00 484.00 704.00 504.00 704.00
M 1412.00 704.00 
C 1412.00 761.67 1412.00 819.33 1412.00 877.00
C 1392.00 877.00 1372.00 877.00 1352.00 877.00
C 1352.00 819.33 1352.00 761.67 1352.00 704.00
C 1372.00 704.00 1392.00 704.00 1412.00 704.00
M 758.00 928.00 
C 754.71 940.47 745.63 928.15 738.31 933.31 C 730.98 938.47 730.34 948.44 733.32 956.68 C 736.31 964.91 748.40 964.26 754.00 959.00
C 755.02 961.35 756.58 963.85 759.00 965.00
C 745.04 982.61 720.35 969.02 720.00 949.00 C 719.65 928.98 741.08 912.99 758.00 928.00
M 790.00 922.00 
C 818.63 926.65 811.33 978.54 782.00 973.00 C 752.67 967.46 760.22 917.16 790.00 922.00
M 827.00 950.00 
C 827.35 953.57 830.74 969.38 827.00 972.00
C 826.32 972.47 818.68 972.47 818.00 972.00
C 814.93 969.85 817.44 959.93 817.00 956.00 C 816.56 952.07 816.57 942.94 817.00 939.00 C 817.43 935.06 814.95 925.14 818.00 923.00
C 820.68 921.12 826.99 924.41 830.00 923.00
C 832.79 933.16 837.35 942.76 840.00 953.00
C 844.33 943.64 847.23 932.91 851.00 923.00
C 855.00 923.00 859.00 923.00 863.00 923.00
C 863.00 939.33 863.00 955.67 863.00 972.00
C 859.67 972.00 856.33 972.00 853.00 972.00
C 852.11 961.35 854.36 949.53 853.00 940.00
C 851.83 949.29 848.09 951.36 846.03 961.03 C 843.96 970.69 834.95 968.01 834.02 958.98 C 833.10 949.94 826.97 946.95 827.00 938.00
C 824.86 941.18 828.23 945.90 827.00 950.00
M 708.00 959.00 
C 715.78 961.21 711.55 976.05 703.33 972.67 C 695.11 969.29 699.44 956.57 708.00 959.00 Z"/>
</g>
<g fill="#A6AAAA" fill-opacity="1.00" stroke="None">
<path d="
M 424.00 623.00 
C 326.00 623.00 228.00 623.00 130.00 623.00
C 130.00 653.67 130.00 684.33 130.00 715.00
C 153.33 715.00 176.67 715.00 200.00 715.00
C 200.00 775.34 200.00 835.66 200.00 896.00
C 251.33 896.00 302.67 896.00 354.00 896.00
C 354.00 835.67 354.00 775.33 354.00 715.00
C 377.33 715.00 400.67 715.00 424.00 715.00
C 424.00 684.33 424.00 653.67 424.00 623.00 Z"/>
</g>
<g fill="#DADEDE" fill-opacity="1.00" stroke="None">
<path d="
M 1389.00 634.00 
C 1372.98 631.71 1354.80 637.04 1351.00 654.00 C 1347.20 670.96 1359.27 686.63 1376.00 687.00 C 1392.73 687.37 1409.82 685.15 1414.00 667.00 C 1418.18 648.85 1405.08 636.30 1389.00 634.00 Z"/>
</g>
<g fill="#DBDFDF" fill-opacity="1.00" stroke="None">
<path d="
M 1116.00 639.00 
C 1096.00 639.00 1076.00 639.00 1056.00 639.00
C 1056.00 718.33 1056.00 797.67 1056.00 877.00
C 1076.00 877.00 1096.00 877.00 1116.00 877.00
C 1116.00 797.67 1116.01 718.33 1116.00 639.00 Z"/>
</g>
<g fill="#DBDFDF" fill-opacity="1.00" stroke="None">
<path d="
M 823.00 877.00 
C 824.19 844.48 821.41 802.59 823.00 771.00 C 824.59 739.41 813.53 713.53 784.07 703.93 C 754.62 694.32 726.06 704.93 707.00 727.00
C 702.24 718.69 704.49 703.08 692.00 704.00 C 679.51 704.92 666.53 703.31 654.00 704.00
C 654.00 761.67 654.00 819.33 654.00 877.00
C 664.15 876.39 678.24 877.81 688.00 877.00 C 697.76 876.19 714.04 881.51 714.00 870.00 C 713.96 858.49 714.11 847.03 714.00 836.00 C 713.89 824.97 714.25 813.41 714.00 803.00 C 713.75 792.59 714.22 781.06 716.07 772.07 C 717.93 763.09 721.01 755.03 728.77 750.77 C 736.54 746.51 748.40 745.42 754.75 752.25 C 761.11 759.08 762.32 767.24 763.00 777.00 C 763.68 786.76 762.67 800.54 763.00 811.00 C 763.33 821.46 762.83 833.28 763.00 844.00 C 763.17 854.72 762.87 866.21 763.00 877.00
C 783.00 877.00 803.00 877.00 823.00 877.00 Z"/>
</g>
<g fill="#DBDFDF" fill-opacity="1.00" stroke="None">
<path d="
M 1010.00 868.00 
C 1012.88 864.53 1011.25 851.27 1011.00 847.00 C 1010.75 842.73 1013.33 827.04 1010.00 825.00
C 981.43 838.50 921.60 850.97 916.00 806.00
C 951.67 806.00 987.33 806.01 1023.00 806.00
C 1022.58 790.74 1023.60 770.50 1020.78 756.22 C 1017.95 741.95 1012.14 733.71 1002.75 723.25 C 993.36 712.78 982.83 707.87 969.68 704.32 C 956.53 700.78 936.78 699.62 923.02 702.02 C 909.27 704.42 897.03 708.73 886.08 717.08 C 875.14 725.43 869.71 733.67 863.92 745.92 C 858.14 758.18 856.22 774.78 856.00 789.00 C 855.78 803.22 857.43 821.53 863.23 833.77 C 869.03 846.01 875.78 853.54 886.25 861.75 C 896.71 869.96 909.15 875.56 922.33 877.67 C 935.51 879.78 956.89 881.89 969.99 878.99 C 983.10 876.09 999.78 876.82 1010.00 868.00
M 968.00 769.00 
C 951.00 769.00 934.00 769.00 917.00 769.00
C 917.48 754.80 927.05 741.71 942.02 741.02 C 957.00 740.34 969.85 753.79 968.00 769.00 Z"/>
</g>
<g fill="#DBDFDF" fill-opacity="1.00" stroke="None">
<path d="
M 1269.00 875.00 
C 1274.18 878.70 1282.64 874.98 1289.00 876.00 C 1295.36 877.02 1304.38 875.40 1311.00 876.00
C 1311.02 837.67 1311.00 799.33 1311.00 761.00
C 1311.11 748.63 1308.31 735.02 1300.75 725.25 C 1293.19 715.48 1285.21 710.46 1274.07 705.93 C 1262.94 701.39 1245.59 700.42 1233.00 701.00 C 1220.41 701.58 1203.32 702.81 1192.22 706.22 C 1181.12 709.64 1163.81 711.63 1168.68 723.32 C 1173.55 735.02 1177.47 743.54 1182.00 755.00
C 1196.20 750.65 1208.41 746.02 1223.33 743.33 C 1238.25 740.64 1255.44 749.22 1252.00 767.00
C 1221.59 766.54 1178.64 766.49 1158.25 791.25 C 1137.87 816.02 1146.22 858.28 1173.31 873.69 C 1200.39 889.11 1239.74 877.21 1259.00 854.00
C 1262.95 859.86 1263.85 869.85 1269.00 875.00
M 1252.00 800.00 
C 1253.74 816.28 1250.84 829.79 1234.98 835.98 C 1219.11 842.16 1202.55 828.70 1210.31 812.31 C 1218.06 795.91 1237.24 801.59 1252.00 800.00 Z"/>
</g>
<g fill="#DBDFDF" fill-opacity="1.00" stroke="None">
<path d="
M 504.00 704.00 
C 484.00 704.00 464.00 704.00 444.00 704.00
C 444.07 716.61 443.91 728.41 444.00 740.00 C 444.09 751.59 443.82 764.58 444.00 776.00 C 444.18 787.42 443.61 800.07 444.00 811.00 C 444.39 821.93 445.16 833.24 448.08 842.92 C 451.00 852.61 455.49 857.57 462.25 864.75 C 469.01 871.93 476.04 873.68 484.93 877.07 C 493.81 880.46 507.75 879.86 516.98 878.98 C 526.20 878.09 536.20 872.58 543.25 869.25 C 550.31 865.93 556.38 850.33 561.07 857.93 C 565.77 865.52 564.75 880.23 578.00 877.00 C 591.25 873.77 600.15 879.42 613.00 877.00
C 613.00 819.33 613.00 761.67 613.00 704.00
C 593.00 704.00 573.00 704.00 553.00 704.00
C 552.22 726.41 554.04 759.68 553.00 781.00 C 551.96 802.32 554.18 829.78 528.00 832.00 C 501.82 834.22 502.89 801.12 504.00 780.00 C 505.11 758.88 503.17 726.17 504.00 704.00 Z"/>
</g>
<g fill="#DBDFDF" fill-opacity="1.00" stroke="None">
<path d="
M 1412.00 704.00 
C 1392.00 704.00 1372.00 704.00 1352.00 704.00
C 1352.00 761.67 1352.00 819.33 1352.00 877.00
C 1372.00 877.00 1392.00 877.00 1412.00 877.00
C 1412.00 819.33 1412.00 761.67 1412.00 704.00 Z"/>
</g>
<g fill="#101514" fill-opacity="1.00" stroke="None">
<path d="
M 968.00 769.00 
C 969.85 753.79 957.00 740.34 942.02 741.02 C 927.05 741.71 917.48 754.80 917.00 769.00
C 934.00 769.00 951.00 769.00 968.00 769.00 Z"/>
</g>
<g fill="#666B6A" fill-opacity="1.00" stroke="None">
<path d="
M 1311.00 876.00 
C 1311.00 876.50 1311.00 877.00 1311.00 877.00
C 1315.49 872.69 1310.60 860.58 1312.00 854.00 C 1313.40 847.42 1311.29 837.22 1312.00 830.00 C 1312.71 822.78 1311.57 814.51 1312.00 807.00 C 1312.43 799.50 1311.56 790.54 1312.00 783.00 C 1312.44 775.46 1311.66 767.78 1311.00 761.00
C 1311.00 799.33 1311.02 837.67 1311.00 876.00 Z"/>
</g>
<g fill="#0D1211" fill-opacity="1.00" stroke="None">
<path d="
M 1252.00 800.00 
C 1237.24 801.59 1218.06 795.91 1210.31 812.31 C 1202.55 828.70 1219.11 842.16 1234.98 835.98 C 1250.84 829.79 1253.74 816.28 1252.00 800.00 Z"/>
</g>
<g fill="#5B605F" fill-opacity="1.00" stroke="None">
<path d="
M 1010.00 825.00 
C 1013.33 827.04 1010.75 842.73 1011.00 847.00 C 1011.25 851.27 1012.88 864.53 1010.00 868.00
C 1014.49 864.13 1011.47 850.55 1012.00 845.00 C 1012.53 839.45 1013.20 825.15 1010.00 825.00 Z"/>
</g>
<g fill="#A7ACAB" fill-opacity="1.00" stroke="None">
<path d="
M 1311.00 877.00 
C 1311.00 877.00 1311.00 876.50 1311.00 876.00
C 1304.38 875.40 1295.36 877.02 1289.00 876.00 C 1282.64 874.98 1274.18 878.70 1269.00 875.00
C 1273.30 879.30 1282.62 876.71 1289.00 877.00 C 1295.38 877.29 1304.45 877.58 1311.00 877.00 Z"/>
</g>
<g fill="#D5D9D9" fill-opacity="1.00" stroke="None">
<path d="
M 758.00 928.00 
C 741.08 912.99 719.65 928.98 720.00 949.00 C 720.35 969.02 745.04 982.61 759.00 965.00
C 756.58 963.85 755.02 961.35 754.00 959.00
C 748.40 964.26 736.31 964.91 733.32 956.68 C 730.34 948.44 730.98 938.47 738.31 933.31 C 745.63 928.15 754.71 940.47 758.00 928.00 Z"/>
</g>
<g fill="#D7DBDB" fill-opacity="1.00" stroke="None">
<path d="
M 790.00 922.00 
C 760.22 917.16 752.67 967.46 782.00 973.00 C 811.33 978.54 818.63 926.65 790.00 922.00
M 790.00 932.00 
C 803.43 936.96 796.73 967.77 782.33 962.67 C 767.93 957.57 774.68 926.34 790.00 932.00 Z"/>
</g>
<g fill="#7A7E7E" fill-opacity="1.00" stroke="None">
<path d="
M 818.00 972.00 
C 818.00 955.67 818.00 939.33 818.00 923.00
C 814.95 925.14 817.43 935.06 817.00 939.00 C 816.57 942.94 816.56 952.07 817.00 956.00 C 817.44 959.93 814.93 969.85 818.00 972.00 Z"/>
</g>
<g fill="#D9DDDD" fill-opacity="1.00" stroke="None">
<path d="
M 818.00 972.00 
C 818.68 972.47 826.32 972.47 827.00 972.00
C 827.00 964.67 827.00 957.33 827.00 950.00
C 828.23 945.90 824.86 941.18 827.00 938.00
C 826.97 946.95 833.10 949.94 834.02 958.98 C 834.95 968.01 843.96 970.69 846.03 961.03 C 848.09 951.36 851.83 949.29 853.00 940.00
C 854.36 949.53 852.11 961.35 853.00 972.00
C 856.33 972.00 859.67 972.00 863.00 972.00
C 863.00 955.67 863.00 939.33 863.00 923.00
C 859.00 923.00 855.00 923.00 851.00 923.00
C 847.23 932.91 844.33 943.64 840.00 953.00
C 837.35 942.76 832.79 933.16 830.00 923.00
C 826.99 924.41 820.68 921.12 818.00 923.00
C 818.00 939.33 818.00 955.67 818.00 972.00 Z"/>
</g>
<g fill="#0F1413" fill-opacity="1.00" stroke="None">
<path d="
M 790.00 932.00 
C 774.68 926.34 767.93 957.57 782.33 962.67 C 796.73 967.77 803.43 936.96 790.00 932.00 Z"/>
</g>
<g fill="#6F7373" fill-opacity="1.00" stroke="None">
<path d="
M 827.00 972.00 
C 830.74 969.38 827.35 953.57 827.00 950.00
C 827.00 957.33 827.00 964.67 827.00 972.00 Z"/>
</g>
<g fill="#D4D8D8" fill-opacity="1.00" stroke="None">
<path d="
M 708.00 959.00 
C 699.44 956.57 695.11 969.29 703.33 972.67 C 711.55 976.05 715.78 961.21 708.00 959.00 Z"/>
</g>
</svg>